<?xml version="1.0" encoding="UTF-8" standalone="no"?>
<svg xmlns="http://www.w3.org/2000/svg" xmlns:xlink="http://www.w3.org/1999/xlink" version="1.1" height="100" width="200" >
    <defs>
    <style type="text/css"><![CDATA[
        #gagprom {
            fill: #0154c7;
            stroke: #0154c7;
            stroke-width: 1;
            font-size: 25px;
        }
    ]]>
    </style>
    </defs>
    <g id="gagprom" transform="scale(1.2)">
        <path transform="translate(1, -70) scale(0.2)" d="M 174.28461,618.42453 L 121.58655,618.42453 L 121.58655,653.77924 C 121.63295,653.77924 121.67007,653.6865 121.71648,653.6865 C 134.13239,641.25203 154.26879,641.25203 166.69398,653.6865 C 179.10989,666.02817 179.10989,686.16457 166.69398,698.59904 C 166.63837,698.69185 166.58269,698.69185 166.527,698.78466 C 166.527,698.78466 166.527,698.78466 166.527,698.78466 C 166.46204,698.78466 166.39707,698.87746 166.34139,698.97027 C 153.95332,711.21913 137.76997,717.34356 121.58655,717.34356 C 105.32895,717.34356 89.071364,711.21913 76.674014,698.78466 C 54.811554,676.97788 52.222624,643.10787 68.888494,618.42453 C 71.134114,615.08393 73.723124,611.92887 76.674014,608.9595 C 89.071364,596.52503 105.32895,590.40052 121.58655,590.40052 L 121.58655,505.40073 C 59.117274,505.40073 8.4792243,555.97374 8.4792243,618.42453 C 8.4792243,680.87532 59.117274,731.54114 121.58655,731.54114 C 154.15749,731.54114 183.49913,717.71471 204.13661,695.7224 L 204.13661,618.42453 L 174.28461,618.42453"/>
        <path transform="translate(1, -70) scale(0.2)" d="M 189.22457,463.6431 C 182.29279,433.2993 164.92167,408.61596 162.52755,404.62579 C 158.74148,410.28626 144.88728,432.09296 137.84414,456.2196 C 130.1515,483.22281 129.0194,507.16384 131.67331,530.64083 C 134.30872,554.21063 144.26555,578.43008 144.26555,578.43008 C 149.55487,591.0501 157.47953,604.69091 162.63892,611.37211 C 170.20163,601.53593 187.58211,572.21285 193.00129,533.98143 C 196.01713,512.63869 196.14699,493.98698 189.22457,463.6431 z M 162.52755,603.76299 C 159.12199,597.36014 153.83267,585.20409 153.33159,566.27396 C 153.20166,548.0862 160.50459,532.40394 162.63892,529.15615 C 164.54116,532.40394 170.83264,546.04475 171.5843,564.69646 C 172.09467,582.88422 166.04448,597.26733 162.52755,603.76299 z M 187.21089,515.14411 C 186.9511,526.74347 185.56843,538.99233 183.80532,546.3231 C 184.43633,533.70308 182.92381,515.97929 180.02861,502.06013 C 177.13341,488.2337 168.93961,465.03506 162.39762,454.36369 C 156.35672,464.5711 148.91458,484.61469 145.01721,501.96733 C 141.10129,519.31989 140.98992,540.38428 140.98992,546.69433 C 139.95063,541.40501 137.35234,522.38214 138.08544,503.3592 C 138.69789,487.67694 142.37252,471.43791 144.3862,464.01433 C 152.06956,439.23819 160.76444,423.37031 162.39762,420.86482 C 164.0308,423.37031 174.98059,442.94994 180.65962,463.45756 C 186.31081,483.96519 187.45218,503.63762 187.21089,515.14411"/>
        <text x="45" y="70">Gagprom</text>
    </g>
</svg>